<svg width="481" height="303" viewBox="0 0 481 303" fill="none" xmlns="http://www.w3.org/2000/svg">
<path d="M37.7891 43.1641C38.4922 43.5859 39.1953 44.0781 39.8984 44.6406C41.3047 45.8594 42.6875 47.2188 44.0469 48.7188C45.4062 50.2187 46.7188 51.7188 47.9844 53.2188C54.5 61.375 61.0156 70.6562 67.5312 81.0625C68.3281 76.4219 69.1953 72.1094 70.1328 68.125C71.1172 64.0938 72.1719 60.7188 73.2969 58C74.6562 54.5781 76.1328 51.8594 77.7266 49.8438C78.9922 48.2969 80.4219 47.2891 82.0156 46.8203C83.9375 46.3516 86.1172 46.2344 88.5547 46.4688C91.0391 46.6563 93.2422 46.9609 95.1641 47.3828C97.9297 48.0859 100.039 49.1406 101.492 50.5469C102.945 51.9531 103.18 54.3438 102.195 57.7188C98.7266 69.4844 96.2422 82.5625 94.7422 96.9531C93.2891 111.344 93.4766 124.305 95.3047 135.836C95.4922 137.055 95.7031 138.32 95.9375 139.633C96.1719 140.898 96.2422 142.117 96.1484 143.289C95.9141 145.539 94.625 146.992 92.2812 147.648C89.9844 148.258 87.3828 148.422 84.4766 148.141C81.6172 147.906 78.8047 147.367 76.0391 146.523C73.3203 145.68 71.4219 144.836 70.3438 143.992C68.5156 142.633 67.2031 140.805 66.4062 138.508C65.6094 136.211 65.0469 133.961 64.7188 131.758C60.7812 120.648 56.375 110.617 51.5 101.664C46.6719 92.6641 41.0234 83.3828 34.5547 73.8203C32.9141 83.2891 31.8828 92.9219 31.4609 102.719C31.0859 112.469 31.5547 121.422 32.8672 129.578C33.0078 130.797 33.1953 132.062 33.4297 133.375C33.7109 134.641 33.8047 135.883 33.7109 137.102C33.1953 141.602 29.3047 143.266 22.0391 142.094C14.7734 140.875 10.0391 139.422 7.83594 137.734C5.86719 136.281 4.48438 134.312 3.6875 131.828C2.9375 129.297 2.42188 126.906 2.14062 124.656C1.48438 120.25 1.27344 114.719 1.50781 108.062C1.78906 101.359 2.35156 94.4922 3.19531 87.4609C4.08594 80.4297 5.1875 73.7031 6.5 67.2812C7.85938 60.8594 9.3125 55.7031 10.8594 51.8125C12.0781 48.4375 13.5312 45.6953 15.2188 43.5859C16.4844 42.0391 17.9375 41.0547 19.5781 40.6328C21.5 40.1172 23.6797 39.9766 26.1172 40.2109C28.5547 40.3984 30.7578 40.7031 32.7266 41.125C35.1172 41.8281 36.8047 42.5078 37.7891 43.1641ZM111.758 59.6172C113.68 57.1797 116.023 54.8594 118.789 52.6562C121.555 50.4062 124.273 48.4375 126.945 46.75C130.227 44.7344 133.367 44.9219 136.367 47.3125C140.633 50.8281 144.008 55.1875 146.492 60.3906C149.023 65.5469 152.258 70.0703 156.195 73.9609C157.414 75.2266 158.75 75.4609 160.203 74.6641C161.656 73.8203 162.875 72.9297 163.859 71.9922C166.719 69.2734 169.227 66.1328 171.383 62.5703C173.586 58.9609 175.625 55.4453 177.5 52.0234C178.672 49.9141 179.938 48.3906 181.297 47.4531C182.656 46.5156 184.695 46.5391 187.414 47.5234C189.945 48.5078 192.453 50.0313 194.938 52.0938C197.469 54.1562 199.578 56.2422 201.266 58.3516C203.094 60.7422 203.539 63.8828 202.602 67.7734C201.383 72.7422 199.273 77.6641 196.273 82.5391C193.32 87.3672 190.438 91.8672 187.625 96.0391C184.719 100.352 181.648 104.5 178.414 108.484C175.227 112.422 171.945 116.312 168.57 120.156C165.523 123.625 162.43 127.07 159.289 130.492C156.195 133.914 152.82 137.008 149.164 139.773C145.273 142.68 141.688 144.555 138.406 145.398C135.875 146.055 132.922 145.656 129.547 144.203C126.219 142.75 123.195 140.852 120.477 138.508C117.758 136.117 115.695 133.609 114.289 130.984C112.93 128.359 112.953 126.203 114.359 124.516C115.484 123.109 117.172 121.727 119.422 120.367C121.672 118.961 123.57 117.414 125.117 115.727C126.477 114.273 127.812 112.703 129.125 111.016C130.484 109.328 131.656 107.57 132.641 105.742C134.656 101.852 134.398 98.0078 131.867 94.2109C130.039 91.6328 127.93 89.2422 125.539 87.0391C123.195 84.7891 121.016 82.4688 119 80.0781C117.547 78.4375 116.117 76.7266 114.711 74.9453C113.352 73.1172 112.18 71.2188 111.195 69.25C110.211 67.4219 109.695 65.8281 109.648 64.4688C109.648 63.0625 110.352 61.4453 111.758 59.6172ZM270.875 121.562C267.359 122.828 262.484 123.906 256.25 124.797C250.062 125.688 244.859 126.016 240.641 125.781C239.562 130.891 238.742 135.508 238.18 139.633C237.57 143.617 236.188 145.961 234.031 146.664C231.922 147.367 229.297 147.438 226.156 146.875C224 146.5 221.609 145.844 218.984 144.906C216.406 143.922 214.25 142.727 212.516 141.32C211.062 140.102 210.078 138.414 209.562 136.258C209.141 134.617 208.883 132.906 208.789 131.125C208.742 129.297 208.766 127.539 208.859 125.852C209.094 121.211 210.031 115.305 211.672 108.133C213.312 100.961 215.328 93.6016 217.719 86.0547C220.156 78.5078 222.805 71.2656 225.664 64.3281C228.57 57.3906 231.383 51.8125 234.102 47.5938C235.461 45.4375 237.125 43.2813 239.094 41.125C241.062 38.9219 243.383 37.5391 246.055 36.9766C248.727 36.4141 252.266 36.4844 256.672 37.1875C261.078 37.8906 264.383 39.1562 266.586 40.9844C270.43 43.0469 274.414 47.6875 278.539 54.9062C282.711 62.125 286.555 70.0938 290.07 78.8125C293.586 87.4844 296.586 95.9688 299.07 104.266C301.602 112.562 303.148 118.773 303.711 122.898C304.273 127.023 304.367 130.492 303.992 133.305C303.57 135.648 302.703 137.406 301.391 138.578C299.75 140.172 297.688 141.555 295.203 142.727C292.719 143.898 290.422 144.766 288.312 145.328C285.219 146.172 282.57 146.336 280.367 145.82C278.164 145.258 276.641 143.031 275.797 139.141C274.531 133.938 272.891 128.078 270.875 121.562ZM244.016 112.07C251.188 112.164 258.688 111.273 266.516 109.398C262.906 99.9297 258.828 90.9062 254.281 82.3281C250.391 91.4688 246.969 101.383 244.016 112.07ZM310.672 65.9453C310.953 62.2891 311.398 59.8516 312.008 58.6328C312.664 57.4141 314.914 55.6797 318.758 53.4297C329.023 47.5234 341.211 44.1953 355.32 43.4453C369.477 42.6484 381.383 46.4922 391.039 54.9766C395.492 58.9141 399.008 64 401.586 70.2344C404.211 76.4219 404.117 82.3516 401.305 88.0234C400.133 90.4141 398.539 92.3828 396.523 93.9297C394.508 95.4297 392.727 97.1875 391.18 99.2031C389.82 100.984 389.211 102.906 389.352 104.969C389.398 106.469 389.68 107.875 390.195 109.188C390.617 110.453 391.18 111.648 391.883 112.773C392.586 113.992 393.406 115.07 394.344 116.008C395.375 117.086 396.406 118.023 397.438 118.82C398.281 119.523 399.453 120.367 400.953 121.352C401.75 121.867 402.992 122.641 404.68 123.672C405.289 124.094 405.898 124.492 406.508 124.867C407.164 125.195 407.82 125.547 408.477 125.922C410.164 126.859 411.406 127.562 412.203 128.031C414.641 129.531 415.039 131.453 413.398 133.797C412.039 135.766 410.164 137.852 407.773 140.055C405.383 142.211 403.156 143.922 401.094 145.188C398.422 146.875 395.422 147.039 392.094 145.68C386.891 143.617 381.547 139.492 376.062 133.305C370.625 127.07 366.289 122.219 363.055 118.75C361.18 116.922 359.258 115.656 357.289 114.953C355.367 114.25 353.258 114.953 350.961 117.062C348.523 119.359 347.539 123.508 348.008 129.508C348.523 135.508 349.062 139.984 349.625 142.938C349.906 144.766 349.672 145.961 348.922 146.523C348.219 147.039 347.094 147.391 345.547 147.578C343.766 147.812 341.75 147.953 339.5 148C337.297 148 335.305 147.93 333.523 147.789C332.258 147.695 330.969 147.531 329.656 147.297C328.391 147.016 327.312 146.359 326.422 145.328C324.547 143.359 322.461 138.531 320.164 130.844C317.914 123.109 316.484 117.789 315.875 114.883C315.734 114.367 315.594 113.852 315.453 113.336C315.359 112.773 315.266 112.211 315.172 111.648C313.672 104.711 312.383 97.2344 311.305 89.2188C310.227 81.1562 310.016 73.3984 310.672 65.9453ZM365.727 67.3516C360.477 65.8516 355.016 66.1094 349.344 68.125C346.625 69.1562 344.75 70.9844 343.719 73.6094C343.156 75.1562 343.086 77.5703 343.508 80.8516C343.93 84.1328 344.656 86.3594 345.688 87.5312C347.844 90.0156 350.914 91.0938 354.898 90.7656C356.82 90.5781 358.789 90.2734 360.805 89.8516C362.867 89.4297 364.789 88.7969 366.57 87.9531C369.57 86.5469 371.727 84.2031 373.039 80.9219C374.352 77.5938 373.906 74.4531 371.703 71.5C370.062 69.4375 368.07 68.0547 365.727 67.3516ZM421.273 126.836C421.367 123.227 423.242 121.422 426.898 121.422C427.367 121.422 427.883 121.422 428.445 121.422C429.008 121.422 429.594 121.422 430.203 121.422C429.922 117.297 429.781 112.727 429.781 107.711C429.781 103.586 429.945 98.4766 430.273 92.3828C430.602 86.9922 431.023 81.8594 431.539 76.9844C432.148 71.5 432.805 66.8594 433.508 63.0625C432.383 62.9688 431.562 62.8984 431.047 62.8516C430.531 62.8047 429.805 62.7344 428.867 62.6406C428.445 62.5937 427.859 62.5234 427.109 62.4297C426.969 62.4297 426.523 62.3359 425.773 62.1484C423.992 61.8203 422.75 60.6719 422.047 58.7031C421.438 57.1094 421.203 55 421.344 52.375C421.531 50.0313 421.977 47.8047 422.68 45.6953C423.242 43.7266 423.922 42.25 424.719 41.2656C425.938 39.8594 428.516 38.875 432.453 38.3125C436.156 37.8437 440.375 37.7031 445.109 37.8906C449.703 38.0781 454.062 38.4062 458.188 38.875C461.984 39.3906 465.055 39.8828 467.398 40.3516C467.82 40.4453 468.453 40.6797 469.297 41.0547C469.766 41.2891 470.375 41.6406 471.125 42.1094C471.125 42.1094 471.688 42.5312 472.812 43.375C473.094 43.6094 473.633 44.0547 474.43 44.7109C474.758 45.0859 475.062 45.625 475.344 46.3281C475.625 47.2656 475.883 48.1562 476.117 49C476.164 49.2344 476.398 50.1484 476.82 51.7422C476.961 52.7266 477.102 53.3359 477.242 53.5703C477.43 54.4609 477.57 55.3281 477.664 56.1719C477.758 57.0156 477.781 57.9531 477.734 58.9844C477.594 62.0781 476.422 63.7656 474.219 64.0469C472.062 64.3281 469.906 64.4453 467.75 64.3984C466.578 64.3984 464.586 64.3516 461.773 64.2578C460.93 69.6484 460.344 74.5 460.016 78.8125C459.594 82.9844 459.266 87.9297 459.031 93.6484C458.844 98.6641 458.844 103.562 459.031 108.344C459.172 113.547 459.477 118.234 459.945 122.406C461.914 122.5 463.367 122.594 464.305 122.688C464.961 122.734 465.594 122.805 466.203 122.898C466.859 122.945 467.469 122.969 468.031 122.969C468.875 123.062 469.906 123.18 471.125 123.32C471.547 123.367 471.922 123.438 472.25 123.531C472.625 123.578 472.953 123.602 473.234 123.602C474.969 124.023 476.234 125.195 477.031 127.117C477.594 128.758 477.805 130.867 477.664 133.445C477.523 135.742 477.102 137.969 476.398 140.125C475.695 142.281 475.016 143.758 474.359 144.555C473.188 145.914 470.609 146.898 466.625 147.508C464.797 147.789 462.781 147.953 460.578 148C458.422 148 456.219 147.977 453.969 147.93C449.891 147.836 445.508 147.484 440.82 146.875C437.258 146.5 434.188 146.031 431.609 145.469C430.766 145.188 430.156 144.953 429.781 144.766C429.453 144.625 428.844 144.273 427.953 143.711C427.531 143.43 426.945 143.008 426.195 142.445C426.242 142.492 425.727 142.047 424.648 141.109C424.32 140.875 424.016 140.336 423.734 139.492C423.453 138.836 423.172 137.945 422.891 136.82C422.656 135.836 422.445 134.922 422.258 134.078C422.023 133.234 421.883 132.602 421.836 132.18C421.555 131.523 421.391 130.68 421.344 129.648C421.25 128.43 421.227 127.492 421.273 126.836Z" fill="#0C45A6"/>
<path d="M38.4219 164.539C39.5469 160.93 41.6562 159.008 44.75 158.773C53.9375 158.305 63.0781 158.516 72.1719 159.406C81.3125 160.297 90.4297 163.133 99.5234 167.914C109.789 173.352 117.969 180.312 124.062 188.797C129.312 196.156 132.641 204.219 134.047 212.984C134.984 219.219 133.883 225.383 130.742 231.477C127.648 237.523 124.25 242.562 120.547 246.594C116.281 251.234 111.477 254.914 106.133 257.633C100.742 260.445 94.8125 262.367 88.3438 263.398C80.2344 264.711 71.9141 264.969 63.3828 264.172C54.8516 263.328 46.3672 262.344 37.9297 261.219C35.2578 260.938 33.5 260.164 32.6562 258.898C31.8125 257.633 31.3672 256.086 31.3203 254.258C30.8516 241.508 31.0391 226.227 31.8828 208.414C32.7266 190.555 34.9062 175.93 38.4219 164.539ZM102.828 212.562C102.547 208.953 100.367 205.578 96.2891 202.438C94.7422 201.359 92.9844 200.281 91.0156 199.203C85.3438 196.391 79.5078 194.609 73.5078 193.859C71.9141 193.625 70.4141 193.531 69.0078 193.578C67.3672 193.719 65.9844 194.281 64.8594 195.266C64.3438 195.734 63.8281 197.516 63.3125 200.609C62.8438 203.703 62.4219 207.102 62.0469 210.805C61.7188 214.461 61.5078 217.883 61.4141 221.07C61.3203 224.258 61.4141 226.133 61.6953 226.695C61.8359 227.117 62.0469 227.422 62.3281 227.609C64.8125 228.875 67.6016 229.836 70.6953 230.492C73.7422 231.102 76.7188 231.336 79.625 231.195C83.4688 231.055 87.6172 230.352 92.0703 229.086C96.5703 227.773 99.5703 225.336 101.07 221.773C102.336 218.773 102.922 215.703 102.828 212.562ZM202.812 239.562C199.297 240.828 194.422 241.906 188.188 242.797C182 243.688 176.797 244.016 172.578 243.781C171.5 248.891 170.68 253.508 170.117 257.633C169.508 261.617 168.125 263.961 165.969 264.664C163.859 265.367 161.234 265.438 158.094 264.875C155.938 264.5 153.547 263.844 150.922 262.906C148.344 261.922 146.188 260.727 144.453 259.32C143 258.102 142.016 256.414 141.5 254.258C141.078 252.617 140.82 250.906 140.727 249.125C140.68 247.297 140.703 245.539 140.797 243.852C141.031 239.211 141.969 233.305 143.609 226.133C145.25 218.961 147.266 211.602 149.656 204.055C152.094 196.508 154.742 189.266 157.602 182.328C160.508 175.391 163.32 169.812 166.039 165.594C167.398 163.438 169.062 161.281 171.031 159.125C173 156.922 175.32 155.539 177.992 154.977C180.664 154.414 184.203 154.484 188.609 155.188C193.016 155.891 196.32 157.156 198.523 158.984C202.367 161.047 206.352 165.688 210.477 172.906C214.648 180.125 218.492 188.094 222.008 196.812C225.523 205.484 228.523 213.969 231.008 222.266C233.539 230.562 235.086 236.773 235.648 240.898C236.211 245.023 236.305 248.492 235.93 251.305C235.508 253.648 234.641 255.406 233.328 256.578C231.688 258.172 229.625 259.555 227.141 260.727C224.656 261.898 222.359 262.766 220.25 263.328C217.156 264.172 214.508 264.336 212.305 263.82C210.102 263.258 208.578 261.031 207.734 257.141C206.469 251.938 204.828 246.078 202.812 239.562ZM175.953 230.07C183.125 230.164 190.625 229.273 198.453 227.398C194.844 217.93 190.766 208.906 186.219 200.328C182.328 209.469 178.906 219.383 175.953 230.07ZM278.82 161.164C279.523 161.586 280.227 162.078 280.93 162.641C282.336 163.859 283.719 165.219 285.078 166.719C286.438 168.219 287.75 169.719 289.016 171.219C295.531 179.375 302.047 188.656 308.562 199.062C309.359 194.422 310.227 190.109 311.164 186.125C312.148 182.094 313.203 178.719 314.328 176C315.688 172.578 317.164 169.859 318.758 167.844C320.023 166.297 321.453 165.289 323.047 164.82C324.969 164.352 327.148 164.234 329.586 164.469C332.07 164.656 334.273 164.961 336.195 165.383C338.961 166.086 341.07 167.141 342.523 168.547C343.977 169.953 344.211 172.344 343.227 175.719C339.758 187.484 337.273 200.562 335.773 214.953C334.32 229.344 334.508 242.305 336.336 253.836C336.523 255.055 336.734 256.32 336.969 257.633C337.203 258.898 337.273 260.117 337.18 261.289C336.945 263.539 335.656 264.992 333.312 265.648C331.016 266.258 328.414 266.422 325.508 266.141C322.648 265.906 319.836 265.367 317.07 264.523C314.352 263.68 312.453 262.836 311.375 261.992C309.547 260.633 308.234 258.805 307.438 256.508C306.641 254.211 306.078 251.961 305.75 249.758C301.812 238.648 297.406 228.617 292.531 219.664C287.703 210.664 282.055 201.383 275.586 191.82C273.945 201.289 272.914 210.922 272.492 220.719C272.117 230.469 272.586 239.422 273.898 247.578C274.039 248.797 274.227 250.062 274.461 251.375C274.742 252.641 274.836 253.883 274.742 255.102C274.227 259.602 270.336 261.266 263.07 260.094C255.805 258.875 251.07 257.422 248.867 255.734C246.898 254.281 245.516 252.312 244.719 249.828C243.969 247.297 243.453 244.906 243.172 242.656C242.516 238.25 242.305 232.719 242.539 226.062C242.82 219.359 243.383 212.492 244.227 205.461C245.117 198.43 246.219 191.703 247.531 185.281C248.891 178.859 250.344 173.703 251.891 169.812C253.109 166.438 254.562 163.695 256.25 161.586C257.516 160.039 258.969 159.055 260.609 158.633C262.531 158.117 264.711 157.977 267.148 158.211C269.586 158.398 271.789 158.703 273.758 159.125C276.148 159.828 277.836 160.508 278.82 161.164ZM412.062 239.562C408.547 240.828 403.672 241.906 397.438 242.797C391.25 243.688 386.047 244.016 381.828 243.781C380.75 248.891 379.93 253.508 379.367 257.633C378.758 261.617 377.375 263.961 375.219 264.664C373.109 265.367 370.484 265.438 367.344 264.875C365.188 264.5 362.797 263.844 360.172 262.906C357.594 261.922 355.438 260.727 353.703 259.32C352.25 258.102 351.266 256.414 350.75 254.258C350.328 252.617 350.07 250.906 349.977 249.125C349.93 247.297 349.953 245.539 350.047 243.852C350.281 239.211 351.219 233.305 352.859 226.133C354.5 218.961 356.516 211.602 358.906 204.055C361.344 196.508 363.992 189.266 366.852 182.328C369.758 175.391 372.57 169.812 375.289 165.594C376.648 163.438 378.312 161.281 380.281 159.125C382.25 156.922 384.57 155.539 387.242 154.977C389.914 154.414 393.453 154.484 397.859 155.188C402.266 155.891 405.57 157.156 407.773 158.984C411.617 161.047 415.602 165.688 419.727 172.906C423.898 180.125 427.742 188.094 431.258 196.812C434.773 205.484 437.773 213.969 440.258 222.266C442.789 230.562 444.336 236.773 444.898 240.898C445.461 245.023 445.555 248.492 445.18 251.305C444.758 253.648 443.891 255.406 442.578 256.578C440.938 258.172 438.875 259.555 436.391 260.727C433.906 261.898 431.609 262.766 429.5 263.328C426.406 264.172 423.758 264.336 421.555 263.82C419.352 263.258 417.828 261.031 416.984 257.141C415.719 251.938 414.078 246.078 412.062 239.562ZM385.203 230.07C392.375 230.164 399.875 229.273 407.703 227.398C404.094 217.93 400.016 208.906 395.469 200.328C391.578 209.469 388.156 219.383 385.203 230.07Z" fill="#0C45A6"/>
</svg>
