<svg width="942" height="219" viewBox="0 0 942 219" fill="none" xmlns="http://www.w3.org/2000/svg">
<path d="M170.046 204.832C168.83 206.432 166.894 207.232 164.238 207.232C161.582 207.232 159.086 206.016 156.75 203.584C154.446 201.12 153.294 198.256 153.294 194.992C153.294 191.728 154.462 188.864 156.798 186.4C159.134 183.936 161.694 182.704 164.478 182.704C165.566 182.704 166.558 182.912 167.454 183.328C168.35 183.712 168.958 184.08 169.278 184.432C169.63 184.752 169.902 185.056 170.094 185.344C170.19 184.448 170.51 183.776 171.054 183.328C171.63 182.848 172.542 182.608 173.79 182.608C175.038 182.608 175.95 182.704 176.526 182.896C177.102 183.088 177.502 183.424 177.726 183.904C177.982 184.352 178.126 184.752 178.158 185.104C178.222 185.456 178.254 186 178.254 186.736V206.608C178.254 210.288 176.974 213.248 174.414 215.488C171.854 217.76 168.974 218.896 165.774 218.896C163.342 218.896 161.022 218.304 158.814 217.12C156.606 215.936 155.502 214.864 155.502 213.904C155.502 212.656 155.982 211.552 156.942 210.592C157.55 209.92 158.014 209.456 158.334 209.2C158.686 208.944 159.086 208.816 159.534 208.816C159.982 208.816 160.446 209.008 160.926 209.392C162.462 210.576 164.126 211.168 165.918 211.168C167.134 211.168 168.126 210.688 168.894 209.728C169.662 208.768 170.046 207.616 170.046 206.272V204.832ZM161.502 195.04C161.502 196.064 161.902 196.992 162.702 197.824C163.534 198.656 164.526 199.072 165.678 199.072C166.862 199.072 167.838 198.656 168.606 197.824C169.374 196.96 169.758 196.032 169.758 195.04C169.758 194.016 169.39 193.072 168.654 192.208C167.918 191.312 166.926 190.864 165.678 190.864C164.43 190.864 163.422 191.296 162.654 192.16C161.886 193.024 161.502 193.984 161.502 195.04ZM198.508 185.392C198.7 183.6 199.964 182.704 202.3 182.704C203.548 182.704 204.476 182.8 205.084 182.992C205.692 183.184 206.108 183.52 206.332 184C206.588 184.48 206.732 184.912 206.764 185.296C206.828 185.648 206.86 186.192 206.86 186.928V203.728C206.86 204.464 206.828 205.024 206.764 205.408C206.732 205.76 206.604 206.176 206.38 206.656C205.932 207.488 204.828 207.904 203.068 207.904C201.34 207.904 200.172 207.696 199.564 207.28C198.988 206.832 198.652 206.192 198.556 205.36C197.372 207.056 195.388 207.904 192.604 207.904C189.852 207.904 187.292 206.64 184.924 204.112C182.556 201.584 181.372 198.656 181.372 195.328C181.372 191.968 182.556 189.04 184.924 186.544C187.324 184.016 189.948 182.752 192.796 182.752C193.884 182.752 194.876 182.944 195.772 183.328C196.668 183.712 197.292 184.08 197.644 184.432C197.996 184.752 198.284 185.072 198.508 185.392ZM189.772 195.376C189.772 196.432 190.188 197.392 191.02 198.256C191.852 199.088 192.86 199.504 194.044 199.504C195.228 199.504 196.204 199.072 196.972 198.208C197.772 197.344 198.172 196.4 198.172 195.376C198.172 194.32 197.788 193.344 197.02 192.448C196.284 191.552 195.276 191.104 193.996 191.104C192.748 191.104 191.724 191.552 190.924 192.448C190.156 193.344 189.772 194.32 189.772 195.376ZM210.686 175.024C210.686 174.288 210.702 173.744 210.734 173.392C210.798 173.008 210.942 172.576 211.166 172.096C211.614 171.232 212.862 170.8 214.91 170.8C216.862 170.8 218.078 171.232 218.558 172.096C218.814 172.576 218.958 173.008 218.99 173.392C219.054 173.776 219.086 174.336 219.086 175.072V197.296C219.086 198.448 219.182 199.184 219.374 199.504C219.566 199.792 219.982 199.936 220.622 199.936C221.294 199.936 221.742 199.968 221.966 200.032C222.19 200.064 222.462 200.192 222.782 200.416C223.422 200.832 223.742 201.968 223.742 203.824C223.742 205.84 223.422 207.072 222.782 207.52C221.95 208.096 219.966 208.192 216.83 207.808C214.366 207.488 212.766 206.672 212.03 205.36C211.134 203.792 210.686 201.296 210.686 197.872V175.024ZM242.805 185.392C242.997 183.6 244.261 182.704 246.597 182.704C247.845 182.704 248.773 182.8 249.381 182.992C249.989 183.184 250.405 183.52 250.629 184C250.885 184.48 251.029 184.912 251.061 185.296C251.125 185.648 251.157 186.192 251.157 186.928V203.728C251.157 204.464 251.125 205.024 251.061 205.408C251.029 205.76 250.901 206.176 250.677 206.656C250.229 207.488 249.125 207.904 247.365 207.904C245.637 207.904 244.469 207.696 243.861 207.28C243.285 206.832 242.949 206.192 242.853 205.36C241.669 207.056 239.685 207.904 236.901 207.904C234.149 207.904 231.589 206.64 229.221 204.112C226.853 201.584 225.669 198.656 225.669 195.328C225.669 191.968 226.853 189.04 229.221 186.544C231.621 184.016 234.245 182.752 237.093 182.752C238.181 182.752 239.173 182.944 240.069 183.328C240.965 183.712 241.589 184.08 241.941 184.432C242.293 184.752 242.581 185.072 242.805 185.392ZM234.069 195.376C234.069 196.432 234.485 197.392 235.317 198.256C236.149 199.088 237.157 199.504 238.341 199.504C239.525 199.504 240.501 199.072 241.269 198.208C242.069 197.344 242.469 196.4 242.469 195.376C242.469 194.32 242.085 193.344 241.317 192.448C240.581 191.552 239.573 191.104 238.293 191.104C237.045 191.104 236.021 191.552 235.221 192.448C234.453 193.344 234.069 194.32 234.069 195.376ZM269.047 182.704C272.247 182.704 274.903 183.936 277.015 186.4C279.159 188.832 280.231 191.808 280.231 195.328V203.776C280.231 204.512 280.199 205.072 280.135 205.456C280.103 205.808 279.975 206.208 279.751 206.656C279.303 207.52 278.055 207.952 276.007 207.952C273.735 207.952 272.423 207.36 272.071 206.176C271.879 205.632 271.783 204.816 271.783 203.728V195.28C271.783 193.968 271.399 192.944 270.631 192.208C269.895 191.472 268.887 191.104 267.607 191.104C266.359 191.104 265.335 191.488 264.535 192.256C263.767 193.024 263.383 194.032 263.383 195.28V203.776C263.383 204.512 263.351 205.072 263.287 205.456C263.255 205.808 263.111 206.208 262.855 206.656C262.439 207.52 261.207 207.952 259.159 207.952C257.143 207.952 255.911 207.52 255.463 206.656C255.239 206.176 255.095 205.76 255.031 205.408C254.999 205.024 254.983 204.464 254.983 203.728V186.736C254.983 186.032 254.999 185.504 255.031 185.152C255.095 184.768 255.255 184.352 255.511 183.904C255.959 183.104 257.191 182.704 259.207 182.704C261.159 182.704 262.359 183.072 262.807 183.808C263.127 184.352 263.287 185.008 263.287 185.776C263.415 185.552 263.703 185.232 264.151 184.816C264.599 184.4 265.031 184.064 265.447 183.808C266.535 183.072 267.735 182.704 269.047 182.704ZM300.124 204.832C298.908 206.432 296.972 207.232 294.316 207.232C291.66 207.232 289.164 206.016 286.828 203.584C284.524 201.12 283.372 198.256 283.372 194.992C283.372 191.728 284.54 188.864 286.876 186.4C289.212 183.936 291.772 182.704 294.556 182.704C295.644 182.704 296.636 182.912 297.532 183.328C298.428 183.712 299.036 184.08 299.356 184.432C299.708 184.752 299.98 185.056 300.172 185.344C300.268 184.448 300.588 183.776 301.132 183.328C301.708 182.848 302.62 182.608 303.868 182.608C305.116 182.608 306.028 182.704 306.604 182.896C307.18 183.088 307.58 183.424 307.804 183.904C308.06 184.352 308.204 184.752 308.236 185.104C308.3 185.456 308.332 186 308.332 186.736V206.608C308.332 210.288 307.052 213.248 304.492 215.488C301.932 217.76 299.052 218.896 295.852 218.896C293.42 218.896 291.1 218.304 288.892 217.12C286.684 215.936 285.58 214.864 285.58 213.904C285.58 212.656 286.06 211.552 287.02 210.592C287.628 209.92 288.092 209.456 288.412 209.2C288.764 208.944 289.164 208.816 289.612 208.816C290.06 208.816 290.524 209.008 291.004 209.392C292.54 210.576 294.204 211.168 295.996 211.168C297.212 211.168 298.204 210.688 298.972 209.728C299.74 208.768 300.124 207.616 300.124 206.272V204.832ZM291.58 195.04C291.58 196.064 291.98 196.992 292.78 197.824C293.612 198.656 294.604 199.072 295.756 199.072C296.94 199.072 297.916 198.656 298.684 197.824C299.452 196.96 299.836 196.032 299.836 195.04C299.836 194.016 299.468 193.072 298.732 192.208C297.996 191.312 297.004 190.864 295.756 190.864C294.508 190.864 293.5 191.296 292.732 192.16C291.964 193.024 291.58 193.984 291.58 195.04ZM341.255 172.192C341.511 171.712 341.943 171.376 342.551 171.184C343.159 170.992 343.959 170.896 344.951 170.896C345.975 170.896 346.791 170.992 347.399 171.184C348.007 171.376 348.423 171.712 348.647 172.192C348.903 172.672 349.047 173.104 349.079 173.488C349.143 173.84 349.175 174.384 349.175 175.12V203.776C349.175 204.512 349.143 205.072 349.079 205.456C349.047 205.808 348.903 206.208 348.647 206.656C348.167 207.52 346.807 207.952 344.567 207.952C342.359 207.952 341.127 207.168 340.871 205.6C339.527 207.136 337.655 207.904 335.255 207.904C332.375 207.904 329.751 206.656 327.383 204.16C325.015 201.632 323.831 198.704 323.831 195.376C323.831 192.016 325.015 189.072 327.383 186.544C329.783 184.016 332.407 182.752 335.255 182.752C337.623 182.752 339.463 183.552 340.775 185.152V175.072C340.775 174.336 340.791 173.792 340.823 173.44C340.887 173.056 341.031 172.64 341.255 172.192ZM333.479 198.256C334.311 199.12 335.319 199.552 336.503 199.552C337.687 199.552 338.663 199.12 339.431 198.256C340.231 197.392 340.631 196.448 340.631 195.424C340.631 194.368 340.247 193.392 339.479 192.496C338.743 191.6 337.735 191.152 336.455 191.152C335.175 191.152 334.151 191.6 333.383 192.496C332.615 193.36 332.231 194.32 332.231 195.376C332.231 196.432 332.647 197.392 333.479 198.256ZM369.414 185.392C369.606 183.6 370.87 182.704 373.206 182.704C374.454 182.704 375.382 182.8 375.99 182.992C376.598 183.184 377.014 183.52 377.238 184C377.494 184.48 377.638 184.912 377.67 185.296C377.734 185.648 377.766 186.192 377.766 186.928V203.728C377.766 204.464 377.734 205.024 377.67 205.408C377.638 205.76 377.51 206.176 377.286 206.656C376.838 207.488 375.734 207.904 373.974 207.904C372.246 207.904 371.078 207.696 370.47 207.28C369.894 206.832 369.558 206.192 369.462 205.36C368.278 207.056 366.294 207.904 363.51 207.904C360.758 207.904 358.198 206.64 355.83 204.112C353.462 201.584 352.278 198.656 352.278 195.328C352.278 191.968 353.462 189.04 355.83 186.544C358.23 184.016 360.854 182.752 363.702 182.752C364.79 182.752 365.782 182.944 366.678 183.328C367.574 183.712 368.198 184.08 368.55 184.432C368.902 184.752 369.19 185.072 369.414 185.392ZM360.678 195.376C360.678 196.432 361.094 197.392 361.926 198.256C362.758 199.088 363.766 199.504 364.95 199.504C366.134 199.504 367.11 199.072 367.878 198.208C368.678 197.344 369.078 196.4 369.078 195.376C369.078 194.32 368.694 193.344 367.926 192.448C367.19 191.552 366.182 191.104 364.902 191.104C363.654 191.104 362.63 191.552 361.83 192.448C361.062 193.344 360.678 194.32 360.678 195.376ZM395.656 182.704C398.856 182.704 401.512 183.936 403.624 186.4C405.768 188.832 406.84 191.808 406.84 195.328V203.776C406.84 204.512 406.808 205.072 406.744 205.456C406.712 205.808 406.584 206.208 406.36 206.656C405.912 207.52 404.664 207.952 402.616 207.952C400.344 207.952 399.032 207.36 398.68 206.176C398.488 205.632 398.392 204.816 398.392 203.728V195.28C398.392 193.968 398.008 192.944 397.24 192.208C396.504 191.472 395.496 191.104 394.216 191.104C392.968 191.104 391.944 191.488 391.144 192.256C390.376 193.024 389.992 194.032 389.992 195.28V203.776C389.992 204.512 389.96 205.072 389.896 205.456C389.864 205.808 389.72 206.208 389.464 206.656C389.048 207.52 387.816 207.952 385.768 207.952C383.752 207.952 382.52 207.52 382.072 206.656C381.848 206.176 381.704 205.76 381.64 205.408C381.608 205.024 381.592 204.464 381.592 203.728V186.736C381.592 186.032 381.608 185.504 381.64 185.152C381.704 184.768 381.864 184.352 382.12 183.904C382.568 183.104 383.8 182.704 385.816 182.704C387.768 182.704 388.968 183.072 389.416 183.808C389.736 184.352 389.896 185.008 389.896 185.776C390.024 185.552 390.312 185.232 390.76 184.816C391.208 184.4 391.64 184.064 392.056 183.808C393.144 183.072 394.344 182.704 395.656 182.704ZM427.117 185.392C427.309 183.6 428.573 182.704 430.909 182.704C432.157 182.704 433.085 182.8 433.693 182.992C434.301 183.184 434.717 183.52 434.941 184C435.197 184.48 435.341 184.912 435.373 185.296C435.437 185.648 435.469 186.192 435.469 186.928V203.728C435.469 204.464 435.437 205.024 435.373 205.408C435.341 205.76 435.213 206.176 434.989 206.656C434.541 207.488 433.437 207.904 431.677 207.904C429.949 207.904 428.781 207.696 428.173 207.28C427.597 206.832 427.261 206.192 427.165 205.36C425.981 207.056 423.997 207.904 421.213 207.904C418.461 207.904 415.901 206.64 413.533 204.112C411.165 201.584 409.981 198.656 409.981 195.328C409.981 191.968 411.165 189.04 413.533 186.544C415.933 184.016 418.557 182.752 421.405 182.752C422.493 182.752 423.485 182.944 424.381 183.328C425.277 183.712 425.901 184.08 426.253 184.432C426.605 184.752 426.893 185.072 427.117 185.392ZM418.381 195.376C418.381 196.432 418.797 197.392 419.629 198.256C420.461 199.088 421.469 199.504 422.653 199.504C423.837 199.504 424.813 199.072 425.581 198.208C426.381 197.344 426.781 196.4 426.781 195.376C426.781 194.32 426.397 193.344 425.629 192.448C424.893 191.552 423.885 191.104 422.605 191.104C421.357 191.104 420.333 191.552 419.533 192.448C418.765 193.344 418.381 194.32 418.381 195.376ZM465.308 182.752C468.156 182.752 470.764 184.016 473.132 186.544C475.532 189.072 476.732 192.016 476.732 195.376C476.732 198.704 475.548 201.632 473.18 204.16C470.812 206.656 468.268 207.904 465.548 207.904C462.828 207.904 460.892 207.136 459.74 205.6C459.484 207.168 458.108 207.952 455.612 207.952C453.596 207.952 452.364 207.52 451.916 206.656C451.692 206.176 451.548 205.76 451.484 205.408C451.452 205.024 451.436 204.464 451.436 203.728V175.072C451.436 174.336 451.452 173.792 451.484 173.44C451.548 173.056 451.692 172.64 451.916 172.192C452.364 171.328 453.612 170.896 455.66 170.896C457.676 170.896 458.892 171.328 459.308 172.192C459.564 172.672 459.708 173.104 459.74 173.488C459.804 173.84 459.836 174.384 459.836 175.12V185.104C461.116 183.536 462.94 182.752 465.308 182.752ZM461.084 198.256C461.884 199.12 462.876 199.552 464.06 199.552C465.244 199.552 466.252 199.12 467.084 198.256C467.916 197.392 468.332 196.432 468.332 195.376C468.332 194.32 467.948 193.36 467.18 192.496C466.412 191.6 465.388 191.152 464.108 191.152C462.828 191.152 461.804 191.6 461.036 192.496C460.3 193.392 459.932 194.368 459.932 195.424C459.932 196.448 460.316 197.392 461.084 198.256ZM491.074 207.904C487.842 207.904 485.154 206.688 483.01 204.256C480.898 201.792 479.842 198.8 479.842 195.28V186.88C479.842 186.112 479.858 185.552 479.89 185.2C479.954 184.848 480.098 184.432 480.322 183.952C480.77 183.088 482.018 182.656 484.066 182.656C486.306 182.656 487.618 183.264 488.002 184.48C488.194 184.992 488.29 185.808 488.29 186.928V195.328C488.29 196.64 488.658 197.664 489.394 198.4C490.162 199.136 491.17 199.504 492.418 199.504C493.698 199.504 494.722 199.12 495.49 198.352C496.29 197.584 496.69 196.576 496.69 195.328V186.832C496.69 186.096 496.706 185.552 496.738 185.2C496.802 184.816 496.962 184.384 497.218 183.904C497.634 183.072 498.866 182.656 500.914 182.656C502.93 182.656 504.162 183.088 504.61 183.952C504.834 184.432 504.962 184.864 504.994 185.248C505.058 185.6 505.09 186.144 505.09 186.88V203.872C505.09 204.576 505.058 205.12 504.994 205.504C504.962 205.856 504.818 206.256 504.562 206.704C504.082 207.536 502.85 207.952 500.866 207.952C498.914 207.952 497.714 207.568 497.266 206.8C496.946 206.256 496.786 205.6 496.786 204.832C496.658 205.056 496.37 205.376 495.922 205.792C495.474 206.208 495.042 206.56 494.626 206.848C493.538 207.552 492.354 207.904 491.074 207.904ZM525.367 185.392C525.559 183.6 526.823 182.704 529.159 182.704C530.407 182.704 531.335 182.8 531.943 182.992C532.551 183.184 532.967 183.52 533.191 184C533.447 184.48 533.591 184.912 533.623 185.296C533.687 185.648 533.719 186.192 533.719 186.928V203.728C533.719 204.464 533.687 205.024 533.623 205.408C533.591 205.76 533.463 206.176 533.239 206.656C532.791 207.488 531.687 207.904 529.927 207.904C528.199 207.904 527.031 207.696 526.423 207.28C525.847 206.832 525.511 206.192 525.415 205.36C524.231 207.056 522.247 207.904 519.463 207.904C516.711 207.904 514.151 206.64 511.783 204.112C509.415 201.584 508.231 198.656 508.231 195.328C508.231 191.968 509.415 189.04 511.783 186.544C514.183 184.016 516.807 182.752 519.655 182.752C520.743 182.752 521.735 182.944 522.631 183.328C523.527 183.712 524.151 184.08 524.503 184.432C524.855 184.752 525.143 185.072 525.367 185.392ZM516.631 195.376C516.631 196.432 517.047 197.392 517.879 198.256C518.711 199.088 519.719 199.504 520.903 199.504C522.087 199.504 523.063 199.072 523.831 198.208C524.631 197.344 525.031 196.4 525.031 195.376C525.031 194.32 524.647 193.344 523.879 192.448C523.143 191.552 522.135 191.104 520.855 191.104C519.607 191.104 518.583 191.552 517.783 192.448C517.015 193.344 516.631 194.32 516.631 195.376ZM552.233 191.2L549.113 191.008V197.632C549.113 198.496 549.241 199.12 549.497 199.504C549.785 199.888 550.297 200.08 551.033 200.08C551.801 200.08 552.377 200.112 552.761 200.176C553.177 200.208 553.609 200.352 554.057 200.608C554.793 201.024 555.161 202.096 555.161 203.824C555.161 205.84 554.713 207.072 553.817 207.52C553.337 207.744 552.905 207.888 552.521 207.952C552.169 207.984 551.641 208 550.937 208C547.609 208 545.081 207.248 543.353 205.744C541.625 204.24 540.761 201.696 540.761 198.112V191.008C540.153 191.104 539.497 191.152 538.793 191.152C538.089 191.152 537.497 190.88 537.017 190.336C536.569 189.792 536.345 188.864 536.345 187.552C536.345 186.24 536.425 185.296 536.585 184.72C536.745 184.112 536.969 183.68 537.257 183.424C537.769 183.008 538.409 182.8 539.177 182.8L540.761 182.992V178.048C540.761 177.312 540.777 176.768 540.809 176.416C540.873 176.064 541.033 175.68 541.289 175.264C541.705 174.464 542.937 174.064 544.985 174.064C547.161 174.064 548.457 174.656 548.873 175.84C549.033 176.352 549.113 177.168 549.113 178.288V182.992C550.521 182.864 551.577 182.8 552.281 182.8C553.017 182.8 553.561 182.832 553.913 182.896C554.297 182.928 554.729 183.072 555.209 183.328C556.041 183.744 556.457 184.976 556.457 187.024C556.457 189.04 556.025 190.272 555.161 190.72C554.681 190.944 554.249 191.088 553.865 191.152C553.513 191.184 552.969 191.2 552.233 191.2ZM582.48 207.904C579.248 207.904 576.56 206.688 574.416 204.256C572.304 201.792 571.248 198.8 571.248 195.28V186.88C571.248 186.112 571.264 185.552 571.296 185.2C571.36 184.848 571.504 184.432 571.728 183.952C572.176 183.088 573.424 182.656 575.472 182.656C577.712 182.656 579.024 183.264 579.408 184.48C579.6 184.992 579.696 185.808 579.696 186.928V195.328C579.696 196.64 580.064 197.664 580.8 198.4C581.568 199.136 582.576 199.504 583.824 199.504C585.104 199.504 586.128 199.12 586.896 198.352C587.696 197.584 588.096 196.576 588.096 195.328V186.832C588.096 186.096 588.112 185.552 588.144 185.2C588.208 184.816 588.368 184.384 588.624 183.904C589.04 183.072 590.272 182.656 592.32 182.656C594.336 182.656 595.568 183.088 596.016 183.952C596.24 184.432 596.368 184.864 596.4 185.248C596.464 185.6 596.496 186.144 596.496 186.88V203.872C596.496 204.576 596.464 205.12 596.4 205.504C596.368 205.856 596.224 206.256 595.968 206.704C595.488 207.536 594.256 207.952 592.272 207.952C590.32 207.952 589.12 207.568 588.672 206.8C588.352 206.256 588.192 205.6 588.192 204.832C588.064 205.056 587.776 205.376 587.328 205.792C586.88 206.208 586.448 206.56 586.032 206.848C584.944 207.552 583.76 207.904 582.48 207.904ZM600.55 205.744C599.942 205.36 599.638 204.752 599.638 203.92C599.638 203.088 600.246 201.824 601.462 200.128C601.814 199.584 602.374 199.312 603.142 199.312C603.942 199.312 605.014 199.712 606.358 200.512C607.702 201.28 608.918 201.664 610.006 201.664C611.958 201.664 612.934 201.28 612.934 200.512C612.934 199.904 611.862 199.456 609.718 199.168C607.702 198.88 605.702 198.128 603.718 196.912C602.79 196.336 602.022 195.44 601.414 194.224C600.806 192.976 600.502 191.504 600.502 189.808C600.502 184.752 603.974 182.224 610.918 182.224C613.19 182.224 615.526 182.768 617.926 183.856C619.046 184.368 619.606 185.008 619.606 185.776C619.606 186.544 619.254 187.488 618.55 188.608C617.846 189.728 617.126 190.288 616.39 190.288C616.006 190.288 615.286 190.048 614.23 189.568C613.206 189.088 612.086 188.848 610.87 188.848C608.982 188.848 608.038 189.2 608.038 189.904C608.038 190.864 609.126 191.488 611.302 191.776C613.414 192 615.462 192.608 617.446 193.6C618.374 194.048 619.142 194.832 619.75 195.952C620.39 197.04 620.71 198.416 620.71 200.08C620.71 201.744 620.39 203.168 619.75 204.352C619.142 205.504 618.278 206.368 617.158 206.944C615.11 207.936 612.534 208.432 609.43 208.432C606.358 208.432 603.398 207.536 600.55 205.744ZM640.258 185.392C640.45 183.6 641.714 182.704 644.05 182.704C645.298 182.704 646.226 182.8 646.834 182.992C647.442 183.184 647.858 183.52 648.082 184C648.338 184.48 648.482 184.912 648.514 185.296C648.578 185.648 648.61 186.192 648.61 186.928V203.728C648.61 204.464 648.578 205.024 648.514 205.408C648.482 205.76 648.354 206.176 648.13 206.656C647.682 207.488 646.578 207.904 644.818 207.904C643.09 207.904 641.922 207.696 641.314 207.28C640.738 206.832 640.402 206.192 640.306 205.36C639.122 207.056 637.138 207.904 634.354 207.904C631.602 207.904 629.042 206.64 626.674 204.112C624.306 201.584 623.122 198.656 623.122 195.328C623.122 191.968 624.306 189.04 626.674 186.544C629.074 184.016 631.698 182.752 634.546 182.752C635.634 182.752 636.626 182.944 637.522 183.328C638.418 183.712 639.042 184.08 639.394 184.432C639.746 184.752 640.034 185.072 640.258 185.392ZM631.522 195.376C631.522 196.432 631.938 197.392 632.77 198.256C633.602 199.088 634.61 199.504 635.794 199.504C636.978 199.504 637.954 199.072 638.722 198.208C639.522 197.344 639.922 196.4 639.922 195.376C639.922 194.32 639.538 193.344 638.77 192.448C638.034 191.552 637.026 191.104 635.746 191.104C634.498 191.104 633.474 191.552 632.674 192.448C631.906 193.344 631.522 194.32 631.522 195.376ZM666.452 182.8C669.652 182.8 672.308 184.016 674.42 186.448C676.564 188.88 677.636 191.856 677.636 195.376V203.824C677.636 204.56 677.604 205.12 677.54 205.504C677.508 205.856 677.364 206.272 677.108 206.752C676.692 207.584 675.46 208 673.412 208C671.46 208 670.244 207.584 669.764 206.752C669.508 206.272 669.348 205.84 669.284 205.456C669.252 205.072 669.236 204.496 669.236 203.728V195.328C669.236 194.016 668.868 192.992 668.132 192.256C667.396 191.52 666.452 191.152 665.3 191.152C664.18 191.152 663.188 191.504 662.324 192.208C661.46 192.88 660.964 193.648 660.836 194.512V203.824C660.836 204.56 660.804 205.12 660.74 205.504C660.708 205.856 660.564 206.272 660.308 206.752C659.892 207.584 658.66 208 656.612 208C654.596 208 653.364 207.568 652.916 206.704C652.692 206.224 652.548 205.808 652.484 205.456C652.452 205.104 652.436 204.544 652.436 203.776V175.072C652.436 174.336 652.452 173.792 652.484 173.44C652.548 173.056 652.692 172.64 652.916 172.192C653.364 171.328 654.612 170.896 656.66 170.896C658.676 170.896 659.892 171.328 660.308 172.192C660.564 172.672 660.708 173.104 660.74 173.488C660.804 173.84 660.836 174.384 660.836 175.12V185.728C662.436 183.776 664.308 182.8 666.452 182.8ZM697.914 185.392C698.106 183.6 699.37 182.704 701.706 182.704C702.954 182.704 703.882 182.8 704.49 182.992C705.098 183.184 705.514 183.52 705.738 184C705.994 184.48 706.138 184.912 706.17 185.296C706.234 185.648 706.266 186.192 706.266 186.928V203.728C706.266 204.464 706.234 205.024 706.17 205.408C706.138 205.76 706.01 206.176 705.786 206.656C705.338 207.488 704.234 207.904 702.474 207.904C700.746 207.904 699.578 207.696 698.97 207.28C698.394 206.832 698.058 206.192 697.962 205.36C696.778 207.056 694.794 207.904 692.01 207.904C689.258 207.904 686.698 206.64 684.33 204.112C681.962 201.584 680.778 198.656 680.778 195.328C680.778 191.968 681.962 189.04 684.33 186.544C686.73 184.016 689.354 182.752 692.202 182.752C693.29 182.752 694.282 182.944 695.178 183.328C696.074 183.712 696.698 184.08 697.05 184.432C697.402 184.752 697.69 185.072 697.914 185.392ZM689.178 195.376C689.178 196.432 689.594 197.392 690.426 198.256C691.258 199.088 692.266 199.504 693.45 199.504C694.634 199.504 695.61 199.072 696.378 198.208C697.178 197.344 697.578 196.4 697.578 195.376C697.578 194.32 697.194 193.344 696.426 192.448C695.69 191.552 694.682 191.104 693.402 191.104C692.154 191.104 691.13 191.552 690.33 192.448C689.562 193.344 689.178 194.32 689.178 195.376ZM718.348 186.064C719.852 183.792 721.66 182.656 723.772 182.656C727.036 182.656 729.468 184.048 731.068 186.832C731.42 186.352 731.836 185.856 732.316 185.344C732.828 184.8 733.628 184.224 734.716 183.616C735.804 182.976 736.924 182.656 738.076 182.656C740.636 182.656 742.78 183.648 744.508 185.632C746.236 187.584 747.1 190.832 747.1 195.376V203.776C747.1 204.512 747.068 205.072 747.004 205.456C746.972 205.808 746.828 206.224 746.572 206.704C746.156 207.568 744.924 208 742.876 208C740.86 208 739.628 207.552 739.18 206.656C738.956 206.176 738.812 205.76 738.748 205.408C738.716 205.024 738.7 204.464 738.7 203.728V195.328C738.7 192.544 737.708 191.152 735.724 191.152C734.604 191.152 733.836 191.52 733.42 192.256C733.036 192.992 732.844 194.032 732.844 195.376V203.776C732.844 204.544 732.812 205.104 732.748 205.456C732.716 205.808 732.572 206.224 732.316 206.704C731.868 207.568 730.62 208 728.572 208C726.556 208 725.324 207.552 724.876 206.656C724.652 206.176 724.508 205.76 724.444 205.408C724.412 205.024 724.396 204.464 724.396 203.728V195.328C724.396 192.544 723.404 191.152 721.42 191.152C719.5 191.152 718.54 192.544 718.54 195.328V203.824C718.54 204.56 718.508 205.12 718.444 205.504C718.412 205.856 718.268 206.272 718.012 206.752C717.532 207.584 716.284 208 714.268 208C712.252 208 711.02 207.568 710.572 206.704C710.348 206.224 710.204 205.808 710.14 205.456C710.108 205.104 710.092 204.544 710.092 203.776V186.88C710.092 186.144 710.108 185.6 710.14 185.248C710.204 184.864 710.364 184.448 710.62 184C711.1 183.136 712.236 182.704 714.028 182.704C715.82 182.704 716.988 182.992 717.532 183.568C718.076 184.144 718.348 184.976 718.348 186.064ZM762.152 207.904C758.92 207.904 756.232 206.688 754.088 204.256C751.976 201.792 750.92 198.8 750.92 195.28V186.88C750.92 186.112 750.936 185.552 750.968 185.2C751.032 184.848 751.176 184.432 751.4 183.952C751.848 183.088 753.096 182.656 755.144 182.656C757.384 182.656 758.696 183.264 759.08 184.48C759.272 184.992 759.368 185.808 759.368 186.928V195.328C759.368 196.64 759.736 197.664 760.472 198.4C761.24 199.136 762.248 199.504 763.496 199.504C764.776 199.504 765.8 199.12 766.568 198.352C767.368 197.584 767.768 196.576 767.768 195.328V186.832C767.768 186.096 767.784 185.552 767.816 185.2C767.88 184.816 768.04 184.384 768.296 183.904C768.712 183.072 769.944 182.656 771.992 182.656C774.008 182.656 775.24 183.088 775.688 183.952C775.912 184.432 776.04 184.864 776.072 185.248C776.136 185.6 776.168 186.144 776.168 186.88V203.872C776.168 204.576 776.136 205.12 776.072 205.504C776.04 205.856 775.896 206.256 775.64 206.704C775.16 207.536 773.928 207.952 771.944 207.952C769.992 207.952 768.792 207.568 768.344 206.8C768.024 206.256 767.864 205.6 767.864 204.832C767.736 205.056 767.448 205.376 767 205.792C766.552 206.208 766.12 206.56 765.704 206.848C764.616 207.552 763.432 207.904 762.152 207.904ZM780.509 200.704C780.829 200.064 781.309 199.632 781.949 199.408C782.621 199.184 783.645 199.072 785.021 199.072C786.429 199.072 787.437 199.376 788.045 199.984C788.685 200.592 789.005 201.552 789.005 202.864V203.632C789.005 204.4 788.973 204.976 788.909 205.36C788.877 205.712 788.733 206.144 788.477 206.656C787.965 207.584 786.733 208.048 784.781 208.048C782.861 208.048 781.581 207.744 780.941 207.136C780.333 206.496 780.029 205.28 780.029 203.488C780.029 202.24 780.189 201.312 780.509 200.704ZM786.941 195.088C786.333 195.248 785.517 195.328 784.493 195.328C783.469 195.328 782.653 195.248 782.045 195.088C781.437 194.928 781.005 194.64 780.749 194.224C780.525 193.808 780.381 193.44 780.317 193.12C780.285 192.8 780.269 192.304 780.269 191.632V176.416C780.269 175.744 780.285 175.248 780.317 174.928C780.381 174.576 780.541 174.192 780.797 173.776C781.053 173.36 781.485 173.072 782.093 172.912C782.701 172.72 783.517 172.624 784.541 172.624C785.565 172.624 786.381 172.72 786.989 172.912C787.597 173.072 788.013 173.376 788.237 173.824C788.493 174.24 788.637 174.624 788.669 174.976C788.733 175.296 788.765 175.792 788.765 176.464V191.68C788.765 192.352 788.733 192.848 788.669 193.168C788.637 193.488 788.493 193.856 788.237 194.272C787.981 194.656 787.549 194.928 786.941 195.088Z" fill="black"/>
<path d="M37.7891 43.1641C38.4922 43.5859 39.1953 44.0781 39.8984 44.6406C41.3047 45.8594 42.6875 47.2188 44.0469 48.7188C45.4062 50.2187 46.7188 51.7188 47.9844 53.2188C54.5 61.375 61.0156 70.6562 67.5312 81.0625C68.3281 76.4219 69.1953 72.1094 70.1328 68.125C71.1172 64.0938 72.1719 60.7188 73.2969 58C74.6562 54.5781 76.1328 51.8594 77.7266 49.8438C78.9922 48.2969 80.4219 47.2891 82.0156 46.8203C83.9375 46.3516 86.1172 46.2344 88.5547 46.4688C91.0391 46.6563 93.2422 46.9609 95.1641 47.3828C97.9297 48.0859 100.039 49.1406 101.492 50.5469C102.945 51.9531 103.18 54.3438 102.195 57.7188C98.7266 69.4844 96.2422 82.5625 94.7422 96.9531C93.2891 111.344 93.4766 124.305 95.3047 135.836C95.4922 137.055 95.7031 138.32 95.9375 139.633C96.1719 140.898 96.2422 142.117 96.1484 143.289C95.9141 145.539 94.625 146.992 92.2812 147.648C89.9844 148.258 87.3828 148.422 84.4766 148.141C81.6172 147.906 78.8047 147.367 76.0391 146.523C73.3203 145.68 71.4219 144.836 70.3438 143.992C68.5156 142.633 67.2031 140.805 66.4062 138.508C65.6094 136.211 65.0469 133.961 64.7188 131.758C60.7812 120.648 56.375 110.617 51.5 101.664C46.6719 92.6641 41.0234 83.3828 34.5547 73.8203C32.9141 83.2891 31.8828 92.9219 31.4609 102.719C31.0859 112.469 31.5547 121.422 32.8672 129.578C33.0078 130.797 33.1953 132.062 33.4297 133.375C33.7109 134.641 33.8047 135.883 33.7109 137.102C33.1953 141.602 29.3047 143.266 22.0391 142.094C14.7734 140.875 10.0391 139.422 7.83594 137.734C5.86719 136.281 4.48438 134.312 3.6875 131.828C2.9375 129.297 2.42188 126.906 2.14062 124.656C1.48438 120.25 1.27344 114.719 1.50781 108.062C1.78906 101.359 2.35156 94.4922 3.19531 87.4609C4.08594 80.4297 5.1875 73.7031 6.5 67.2812C7.85938 60.8594 9.3125 55.7031 10.8594 51.8125C12.0781 48.4375 13.5312 45.6953 15.2188 43.5859C16.4844 42.0391 17.9375 41.0547 19.5781 40.6328C21.5 40.1172 23.6797 39.9766 26.1172 40.2109C28.5547 40.3984 30.7578 40.7031 32.7266 41.125C35.1172 41.8281 36.8047 42.5078 37.7891 43.1641ZM111.758 59.6172C113.68 57.1797 116.023 54.8594 118.789 52.6562C121.555 50.4062 124.273 48.4375 126.945 46.75C130.227 44.7344 133.367 44.9219 136.367 47.3125C140.633 50.8281 144.008 55.1875 146.492 60.3906C149.023 65.5469 152.258 70.0703 156.195 73.9609C157.414 75.2266 158.75 75.4609 160.203 74.6641C161.656 73.8203 162.875 72.9297 163.859 71.9922C166.719 69.2734 169.227 66.1328 171.383 62.5703C173.586 58.9609 175.625 55.4453 177.5 52.0234C178.672 49.9141 179.938 48.3906 181.297 47.4531C182.656 46.5156 184.695 46.5391 187.414 47.5234C189.945 48.5078 192.453 50.0313 194.938 52.0938C197.469 54.1562 199.578 56.2422 201.266 58.3516C203.094 60.7422 203.539 63.8828 202.602 67.7734C201.383 72.7422 199.273 77.6641 196.273 82.5391C193.32 87.3672 190.438 91.8672 187.625 96.0391C184.719 100.352 181.648 104.5 178.414 108.484C175.227 112.422 171.945 116.312 168.57 120.156C165.523 123.625 162.43 127.07 159.289 130.492C156.195 133.914 152.82 137.008 149.164 139.773C145.273 142.68 141.688 144.555 138.406 145.398C135.875 146.055 132.922 145.656 129.547 144.203C126.219 142.75 123.195 140.852 120.477 138.508C117.758 136.117 115.695 133.609 114.289 130.984C112.93 128.359 112.953 126.203 114.359 124.516C115.484 123.109 117.172 121.727 119.422 120.367C121.672 118.961 123.57 117.414 125.117 115.727C126.477 114.273 127.812 112.703 129.125 111.016C130.484 109.328 131.656 107.57 132.641 105.742C134.656 101.852 134.398 98.0078 131.867 94.2109C130.039 91.6328 127.93 89.2422 125.539 87.0391C123.195 84.7891 121.016 82.4688 119 80.0781C117.547 78.4375 116.117 76.7266 114.711 74.9453C113.352 73.1172 112.18 71.2188 111.195 69.25C110.211 67.4219 109.695 65.8281 109.648 64.4688C109.648 63.0625 110.352 61.4453 111.758 59.6172ZM270.875 121.562C267.359 122.828 262.484 123.906 256.25 124.797C250.062 125.688 244.859 126.016 240.641 125.781C239.562 130.891 238.742 135.508 238.18 139.633C237.57 143.617 236.188 145.961 234.031 146.664C231.922 147.367 229.297 147.438 226.156 146.875C224 146.5 221.609 145.844 218.984 144.906C216.406 143.922 214.25 142.727 212.516 141.32C211.062 140.102 210.078 138.414 209.562 136.258C209.141 134.617 208.883 132.906 208.789 131.125C208.742 129.297 208.766 127.539 208.859 125.852C209.094 121.211 210.031 115.305 211.672 108.133C213.312 100.961 215.328 93.6016 217.719 86.0547C220.156 78.5078 222.805 71.2656 225.664 64.3281C228.57 57.3906 231.383 51.8125 234.102 47.5938C235.461 45.4375 237.125 43.2813 239.094 41.125C241.062 38.9219 243.383 37.5391 246.055 36.9766C248.727 36.4141 252.266 36.4844 256.672 37.1875C261.078 37.8906 264.383 39.1562 266.586 40.9844C270.43 43.0469 274.414 47.6875 278.539 54.9062C282.711 62.125 286.555 70.0938 290.07 78.8125C293.586 87.4844 296.586 95.9688 299.07 104.266C301.602 112.562 303.148 118.773 303.711 122.898C304.273 127.023 304.367 130.492 303.992 133.305C303.57 135.648 302.703 137.406 301.391 138.578C299.75 140.172 297.688 141.555 295.203 142.727C292.719 143.898 290.422 144.766 288.312 145.328C285.219 146.172 282.57 146.336 280.367 145.82C278.164 145.258 276.641 143.031 275.797 139.141C274.531 133.938 272.891 128.078 270.875 121.562ZM244.016 112.07C251.188 112.164 258.688 111.273 266.516 109.398C262.906 99.9297 258.828 90.9062 254.281 82.3281C250.391 91.4688 246.969 101.383 244.016 112.07ZM310.672 65.9453C310.953 62.2891 311.398 59.8516 312.008 58.6328C312.664 57.4141 314.914 55.6797 318.758 53.4297C329.023 47.5234 341.211 44.1953 355.32 43.4453C369.477 42.6484 381.383 46.4922 391.039 54.9766C395.492 58.9141 399.008 64 401.586 70.2344C404.211 76.4219 404.117 82.3516 401.305 88.0234C400.133 90.4141 398.539 92.3828 396.523 93.9297C394.508 95.4297 392.727 97.1875 391.18 99.2031C389.82 100.984 389.211 102.906 389.352 104.969C389.398 106.469 389.68 107.875 390.195 109.188C390.617 110.453 391.18 111.648 391.883 112.773C392.586 113.992 393.406 115.07 394.344 116.008C395.375 117.086 396.406 118.023 397.438 118.82C398.281 119.523 399.453 120.367 400.953 121.352C401.75 121.867 402.992 122.641 404.68 123.672C405.289 124.094 405.898 124.492 406.508 124.867C407.164 125.195 407.82 125.547 408.477 125.922C410.164 126.859 411.406 127.562 412.203 128.031C414.641 129.531 415.039 131.453 413.398 133.797C412.039 135.766 410.164 137.852 407.773 140.055C405.383 142.211 403.156 143.922 401.094 145.188C398.422 146.875 395.422 147.039 392.094 145.68C386.891 143.617 381.547 139.492 376.062 133.305C370.625 127.07 366.289 122.219 363.055 118.75C361.18 116.922 359.258 115.656 357.289 114.953C355.367 114.25 353.258 114.953 350.961 117.062C348.523 119.359 347.539 123.508 348.008 129.508C348.523 135.508 349.062 139.984 349.625 142.938C349.906 144.766 349.672 145.961 348.922 146.523C348.219 147.039 347.094 147.391 345.547 147.578C343.766 147.812 341.75 147.953 339.5 148C337.297 148 335.305 147.93 333.523 147.789C332.258 147.695 330.969 147.531 329.656 147.297C328.391 147.016 327.312 146.359 326.422 145.328C324.547 143.359 322.461 138.531 320.164 130.844C317.914 123.109 316.484 117.789 315.875 114.883C315.734 114.367 315.594 113.852 315.453 113.336C315.359 112.773 315.266 112.211 315.172 111.648C313.672 104.711 312.383 97.2344 311.305 89.2188C310.227 81.1562 310.016 73.3984 310.672 65.9453ZM365.727 67.3516C360.477 65.8516 355.016 66.1094 349.344 68.125C346.625 69.1562 344.75 70.9844 343.719 73.6094C343.156 75.1562 343.086 77.5703 343.508 80.8516C343.93 84.1328 344.656 86.3594 345.688 87.5312C347.844 90.0156 350.914 91.0938 354.898 90.7656C356.82 90.5781 358.789 90.2734 360.805 89.8516C362.867 89.4297 364.789 88.7969 366.57 87.9531C369.57 86.5469 371.727 84.2031 373.039 80.9219C374.352 77.5938 373.906 74.4531 371.703 71.5C370.062 69.4375 368.07 68.0547 365.727 67.3516ZM421.273 126.836C421.367 123.227 423.242 121.422 426.898 121.422C427.367 121.422 427.883 121.422 428.445 121.422C429.008 121.422 429.594 121.422 430.203 121.422C429.922 117.297 429.781 112.727 429.781 107.711C429.781 103.586 429.945 98.4766 430.273 92.3828C430.602 86.9922 431.023 81.8594 431.539 76.9844C432.148 71.5 432.805 66.8594 433.508 63.0625C432.383 62.9688 431.562 62.8984 431.047 62.8516C430.531 62.8047 429.805 62.7344 428.867 62.6406C428.445 62.5937 427.859 62.5234 427.109 62.4297C426.969 62.4297 426.523 62.3359 425.773 62.1484C423.992 61.8203 422.75 60.6719 422.047 58.7031C421.438 57.1094 421.203 55 421.344 52.375C421.531 50.0313 421.977 47.8047 422.68 45.6953C423.242 43.7266 423.922 42.25 424.719 41.2656C425.938 39.8594 428.516 38.875 432.453 38.3125C436.156 37.8437 440.375 37.7031 445.109 37.8906C449.703 38.0781 454.062 38.4062 458.188 38.875C461.984 39.3906 465.055 39.8828 467.398 40.3516C467.82 40.4453 468.453 40.6797 469.297 41.0547C469.766 41.2891 470.375 41.6406 471.125 42.1094C471.125 42.1094 471.688 42.5312 472.812 43.375C473.094 43.6094 473.633 44.0547 474.43 44.7109C474.758 45.0859 475.062 45.625 475.344 46.3281C475.625 47.2656 475.883 48.1562 476.117 49C476.164 49.2344 476.398 50.1484 476.82 51.7422C476.961 52.7266 477.102 53.3359 477.242 53.5703C477.43 54.4609 477.57 55.3281 477.664 56.1719C477.758 57.0156 477.781 57.9531 477.734 58.9844C477.594 62.0781 476.422 63.7656 474.219 64.0469C472.062 64.3281 469.906 64.4453 467.75 64.3984C466.578 64.3984 464.586 64.3516 461.773 64.2578C460.93 69.6484 460.344 74.5 460.016 78.8125C459.594 82.9844 459.266 87.9297 459.031 93.6484C458.844 98.6641 458.844 103.562 459.031 108.344C459.172 113.547 459.477 118.234 459.945 122.406C461.914 122.5 463.367 122.594 464.305 122.688C464.961 122.734 465.594 122.805 466.203 122.898C466.859 122.945 467.469 122.969 468.031 122.969C468.875 123.062 469.906 123.18 471.125 123.32C471.547 123.367 471.922 123.438 472.25 123.531C472.625 123.578 472.953 123.602 473.234 123.602C474.969 124.023 476.234 125.195 477.031 127.117C477.594 128.758 477.805 130.867 477.664 133.445C477.523 135.742 477.102 137.969 476.398 140.125C475.695 142.281 475.016 143.758 474.359 144.555C473.188 145.914 470.609 146.898 466.625 147.508C464.797 147.789 462.781 147.953 460.578 148C458.422 148 456.219 147.977 453.969 147.93C449.891 147.836 445.508 147.484 440.82 146.875C437.258 146.5 434.188 146.031 431.609 145.469C430.766 145.188 430.156 144.953 429.781 144.766C429.453 144.625 428.844 144.273 427.953 143.711C427.531 143.43 426.945 143.008 426.195 142.445C426.242 142.492 425.727 142.047 424.648 141.109C424.32 140.875 424.016 140.336 423.734 139.492C423.453 138.836 423.172 137.945 422.891 136.82C422.656 135.836 422.445 134.922 422.258 134.078C422.023 133.234 421.883 132.602 421.836 132.18C421.555 131.523 421.391 130.68 421.344 129.648C421.25 128.43 421.227 127.492 421.273 126.836Z" fill="#0C45A6"/>
<path d="M529.422 50.5391C530.547 46.9297 532.656 45.0078 535.75 44.7734C544.938 44.3047 554.078 44.5156 563.172 45.4062C572.312 46.2969 581.43 49.1328 590.523 53.9141C600.789 59.3516 608.969 66.3125 615.062 74.7969C620.312 82.1562 623.641 90.2188 625.047 98.9844C625.984 105.219 624.883 111.383 621.742 117.477C618.648 123.523 615.25 128.562 611.547 132.594C607.281 137.234 602.477 140.914 597.133 143.633C591.742 146.445 585.812 148.367 579.344 149.398C571.234 150.711 562.914 150.969 554.383 150.172C545.852 149.328 537.367 148.344 528.93 147.219C526.258 146.938 524.5 146.164 523.656 144.898C522.812 143.633 522.367 142.086 522.32 140.258C521.852 127.508 522.039 112.227 522.883 94.4141C523.727 76.5547 525.906 61.9297 529.422 50.5391ZM593.828 98.5625C593.547 94.9531 591.367 91.5781 587.289 88.4375C585.742 87.3594 583.984 86.2812 582.016 85.2031C576.344 82.3906 570.508 80.6094 564.508 79.8594C562.914 79.625 561.414 79.5312 560.008 79.5781C558.367 79.7188 556.984 80.2812 555.859 81.2656C555.344 81.7344 554.828 83.5156 554.312 86.6094C553.844 89.7031 553.422 93.1016 553.047 96.8047C552.719 100.461 552.508 103.883 552.414 107.07C552.32 110.258 552.414 112.133 552.695 112.695C552.836 113.117 553.047 113.422 553.328 113.609C555.812 114.875 558.602 115.836 561.695 116.492C564.742 117.102 567.719 117.336 570.625 117.195C574.469 117.055 578.617 116.352 583.07 115.086C587.57 113.773 590.57 111.336 592.07 107.773C593.336 104.773 593.922 101.703 593.828 98.5625ZM693.812 125.562C690.297 126.828 685.422 127.906 679.188 128.797C673 129.688 667.797 130.016 663.578 129.781C662.5 134.891 661.68 139.508 661.117 143.633C660.508 147.617 659.125 149.961 656.969 150.664C654.859 151.367 652.234 151.438 649.094 150.875C646.938 150.5 644.547 149.844 641.922 148.906C639.344 147.922 637.188 146.727 635.453 145.32C634 144.102 633.016 142.414 632.5 140.258C632.078 138.617 631.82 136.906 631.727 135.125C631.68 133.297 631.703 131.539 631.797 129.852C632.031 125.211 632.969 119.305 634.609 112.133C636.25 104.961 638.266 97.6016 640.656 90.0547C643.094 82.5078 645.742 75.2656 648.602 68.3281C651.508 61.3906 654.32 55.8125 657.039 51.5938C658.398 49.4375 660.062 47.2813 662.031 45.125C664 42.9219 666.32 41.5391 668.992 40.9766C671.664 40.4141 675.203 40.4844 679.609 41.1875C684.016 41.8906 687.32 43.1562 689.523 44.9844C693.367 47.0469 697.352 51.6875 701.477 58.9062C705.648 66.125 709.492 74.0938 713.008 82.8125C716.523 91.4844 719.523 99.9688 722.008 108.266C724.539 116.562 726.086 122.773 726.648 126.898C727.211 131.023 727.305 134.492 726.93 137.305C726.508 139.648 725.641 141.406 724.328 142.578C722.688 144.172 720.625 145.555 718.141 146.727C715.656 147.898 713.359 148.766 711.25 149.328C708.156 150.172 705.508 150.336 703.305 149.82C701.102 149.258 699.578 147.031 698.734 143.141C697.469 137.938 695.828 132.078 693.812 125.562ZM666.953 116.07C674.125 116.164 681.625 115.273 689.453 113.398C685.844 103.93 681.766 94.9062 677.219 86.3281C673.328 95.4688 669.906 105.383 666.953 116.07ZM769.82 47.1641C770.523 47.5859 771.227 48.0781 771.93 48.6406C773.336 49.8594 774.719 51.2188 776.078 52.7188C777.438 54.2187 778.75 55.7188 780.016 57.2188C786.531 65.375 793.047 74.6562 799.562 85.0625C800.359 80.4219 801.227 76.1094 802.164 72.125C803.148 68.0938 804.203 64.7188 805.328 62C806.688 58.5781 808.164 55.8594 809.758 53.8438C811.023 52.2969 812.453 51.2891 814.047 50.8203C815.969 50.3516 818.148 50.2344 820.586 50.4688C823.07 50.6563 825.273 50.9609 827.195 51.3828C829.961 52.0859 832.07 53.1406 833.523 54.5469C834.977 55.9531 835.211 58.3438 834.227 61.7188C830.758 73.4844 828.273 86.5625 826.773 100.953C825.32 115.344 825.508 128.305 827.336 139.836C827.523 141.055 827.734 142.32 827.969 143.633C828.203 144.898 828.273 146.117 828.18 147.289C827.945 149.539 826.656 150.992 824.312 151.648C822.016 152.258 819.414 152.422 816.508 152.141C813.648 151.906 810.836 151.367 808.07 150.523C805.352 149.68 803.453 148.836 802.375 147.992C800.547 146.633 799.234 144.805 798.438 142.508C797.641 140.211 797.078 137.961 796.75 135.758C792.812 124.648 788.406 114.617 783.531 105.664C778.703 96.6641 773.055 87.3828 766.586 77.8203C764.945 87.2891 763.914 96.9219 763.492 106.719C763.117 116.469 763.586 125.422 764.898 133.578C765.039 134.797 765.227 136.062 765.461 137.375C765.742 138.641 765.836 139.883 765.742 141.102C765.227 145.602 761.336 147.266 754.07 146.094C746.805 144.875 742.07 143.422 739.867 141.734C737.898 140.281 736.516 138.312 735.719 135.828C734.969 133.297 734.453 130.906 734.172 128.656C733.516 124.25 733.305 118.719 733.539 112.062C733.82 105.359 734.383 98.4922 735.227 91.4609C736.117 84.4297 737.219 77.7031 738.531 71.2812C739.891 64.8594 741.344 59.7031 742.891 55.8125C744.109 52.4375 745.562 49.6953 747.25 47.5859C748.516 46.0391 749.969 45.0547 751.609 44.6328C753.531 44.1172 755.711 43.9766 758.148 44.2109C760.586 44.3984 762.789 44.7031 764.758 45.125C767.148 45.8281 768.836 46.5078 769.82 47.1641ZM903.062 125.562C899.547 126.828 894.672 127.906 888.438 128.797C882.25 129.688 877.047 130.016 872.828 129.781C871.75 134.891 870.93 139.508 870.367 143.633C869.758 147.617 868.375 149.961 866.219 150.664C864.109 151.367 861.484 151.438 858.344 150.875C856.188 150.5 853.797 149.844 851.172 148.906C848.594 147.922 846.438 146.727 844.703 145.32C843.25 144.102 842.266 142.414 841.75 140.258C841.328 138.617 841.07 136.906 840.977 135.125C840.93 133.297 840.953 131.539 841.047 129.852C841.281 125.211 842.219 119.305 843.859 112.133C845.5 104.961 847.516 97.6016 849.906 90.0547C852.344 82.5078 854.992 75.2656 857.852 68.3281C860.758 61.3906 863.57 55.8125 866.289 51.5938C867.648 49.4375 869.312 47.2813 871.281 45.125C873.25 42.9219 875.57 41.5391 878.242 40.9766C880.914 40.4141 884.453 40.4844 888.859 41.1875C893.266 41.8906 896.57 43.1562 898.773 44.9844C902.617 47.0469 906.602 51.6875 910.727 58.9062C914.898 66.125 918.742 74.0938 922.258 82.8125C925.773 91.4844 928.773 99.9688 931.258 108.266C933.789 116.562 935.336 122.773 935.898 126.898C936.461 131.023 936.555 134.492 936.18 137.305C935.758 139.648 934.891 141.406 933.578 142.578C931.938 144.172 929.875 145.555 927.391 146.727C924.906 147.898 922.609 148.766 920.5 149.328C917.406 150.172 914.758 150.336 912.555 149.82C910.352 149.258 908.828 147.031 907.984 143.141C906.719 137.938 905.078 132.078 903.062 125.562ZM876.203 116.07C883.375 116.164 890.875 115.273 898.703 113.398C895.094 103.93 891.016 94.9062 886.469 86.3281C882.578 95.4688 879.156 105.383 876.203 116.07Z" fill="#0C45A6"/>
</svg>
